<svg xmlns="http://www.w3.org/2000/svg" width="170.08" height="170.08" viewBox="0 0 170.08 170.08"><path fill="#D11F38" d="M0 0h170.08v170.08H0z"/><path fill="#FFF" d="M105.18 123.83l-6.1-17.3H70.7l-6.1 17.3H48l29.7-77.57h15.06l29.47 77.57h-17.05m-16.4-46.1c-1.56-4.54-3.1-9.2-3.9-12.1-.77 2.9-2.3 7.56-3.86 12.1l-5 14.08h17.74l-5-14.08z"/><path fill="#F79239" d="M44.78 87.18c-.36 1.1-1.53 1.68-2.64 1.3l-21.62-7.24c-1.1-.38-1.68-1.55-1.3-2.64L21 73.24c.37-1.08 1.54-1.67 2.63-1.3l21.63 7.26c1.1.35 1.7 1.53 1.32 2.62l-1.8 5.36M43.6 104.17c.36 1.1-.2 2.27-1.3 2.63l-15.42 5.46c-1.1.37-2.26-.2-2.63-1.3l-1.8-5.37c-.36-1.1.22-2.28 1.3-2.63L39.2 97.5c1.07-.37 2.25.22 2.62 1.3l1.8 5.37M39.35 54.7c-.9.7-1.07 2-.37 2.92l9.77 13.1c.7.92 2 1.08 2.9.38l4.48-3.45c.9-.7 1.1-2 .4-2.92L46.74 51.6c-.7-.9-2.02-1.06-2.92-.36l-4.48 3.46M125.28 87.18c.37 1.1 1.55 1.68 2.65 1.3l21.62-7.24c1.1-.38 1.68-1.55 1.3-2.64l-1.77-5.36c-.37-1.08-1.55-1.67-2.64-1.3L124.8 79.2c-1.1.35-1.66 1.53-1.3 2.62l1.78 5.36M126.48 104.17c-.36 1.1.22 2.27 1.3 2.63l15.42 5.46c1.08.37 2.26-.2 2.62-1.3l1.8-5.37c.37-1.1-.2-2.28-1.3-2.63L130.9 97.5c-1.1-.37-2.27.22-2.62 1.3l-1.8 5.37M130.72 54.7c.9.7 1.07 2 .37 2.92l-9.77 13.1c-.7.92-2 1.08-2.9.38l-4.48-3.45c-.92-.7-1.1-2-.4-2.92l9.8-13.12c.7-.9 2-1.06 2.9-.36l4.47 3.46"/></svg>