<svg xmlns="http://www.w3.org/2000/svg" viewBox="0 0 1024 1024" enable-background="new 0 0 1024 1024"><linearGradient id="a" gradientUnits="userSpaceOnUse" x1="81.149" y1="1070.85" x2="430.852" y2="465.147" gradientTransform="matrix(2 0 0 -2 0 2048)"><stop offset="0" stop-color="#5FB1D6"/><stop offset="1" stop-color="#347EA6"/></linearGradient><path fill="url(#a)" d="M0 0h1024v1024H0z"/><path fill="#fff" d="M862 512c0 193.3-156.7 350-350 350S162 705.3 162 512s156.7-350 350-350 350 156.7 350 350zM512 249.1c-145.2 0-262.9 117.7-262.9 262.9S366.8 774.9 512 774.9 774.9 657.2 774.9 512 657.2 249.1 512 249.1zM647.6 671.1H378.5s-30.2-.7-30.2-30.8V452s1.6-30.8 30.2-30.8h182.7v-90.5s-.6-4.7 3.8-4.7h83.5s3.9.3 3.9 5.7v150.6s-2.3 29.2-29.2 29.2h-184v69.6H648s4.4-.1 4.4 4.4v82.3s.3 3.3-4.8 3.3z"/></svg>