<svg xmlns="http://www.w3.org/2000/svg" viewBox="0 0 1024 1024" enable-background="new 0 0 1024 1024"><path fill="#CF0039" d="M0 0h1024v1024H0z"/><path fill="#fff" d="M646 772.6l-40.9-116.1H414.6l-40.9 116.1H262.1l199.4-520.8h101.2l197.9 520.8H646zM535.9 463.1c-10.4-30.5-20.8-61.7-26-81.1-5.2 19.3-15.6 50.6-26 81.1l-33.5 94.5h119l-33.5-94.5z"/><path fill="#F28B00" d="M240.6 526.6c-2.5 7.3-10.4 11.2-17.7 8.8L77.7 486.6c-7.3-2.4-11.2-10.4-8.8-17.7L81 433c2.5-7.3 10.4-11.2 17.7-8.8L243.8 473c7.3 2.5 11.2 10.4 8.8 17.7l-12 35.9zM232.6 640.6c2.4 7.3-1.5 15.2-8.8 17.7L120.4 695c-7.3 2.4-15.2-1.5-17.7-8.8l-12.1-36c-2.4-7.3 1.5-15.2 8.8-17.7l103.4-36.7c7.3-2.4 15.2 1.5 17.7 8.8l12.1 36zM204.2 308.5c-6.1 4.7-7.2 13.5-2.5 19.6l65.6 88c4.7 6.1 13.5 7.2 19.6 2.5l30-23.2c6.1-4.7 7.2-13.5 2.5-19.6l-65.6-88.1c-4.7-6.1-13.5-7.2-19.6-2.5l-30 23.3zM781.1 526.6c2.5 7.3 10.4 11.2 17.7 8.8L944 486.6c7.3-2.4 11.2-10.4 8.8-17.7l-12.1-36c-2.5-7.3-10.4-11.2-17.7-8.8L777.8 473c-7.3 2.5-11.2 10.4-8.8 17.7l12.1 35.9zM789 640.6c-2.5 7.3 1.5 15.2 8.8 17.7L901.3 695c7.3 2.4 15.2-1.5 17.7-8.8l12.1-36c2.5-7.3-1.5-15.2-8.8-17.7l-103.4-36.7c-7.3-2.4-15.2 1.5-17.7 8.8l-12.2 36zM817.5 308.5c6.1 4.7 7.2 13.5 2.5 19.6l-65.6 88c-4.7 6.1-13.5 7.2-19.6 2.5l-30-23.2c-6.1-4.7-7.2-13.5-2.5-19.6l65.6-88.1c4.7-6.1 13.5-7.2 19.6-2.5l30 23.3z"/></svg>